<svg xmlns="http://www.w3.org/2000/svg" xmlns:xlink="http://www.w3.org/1999/xlink" version="1.2" baseProfile="tiny" viewBox="0 0 180 180"><defs><path id="num_1" d="M 45.856042,98.014219 V 27.927829 H 29.235868 v -14.26579 c 5.447036,-0.27607 9.85569,-1.43001 13.225973,-3.461829 3.370207,-2.0316402 5.563966,-5.0792302 6.581282,-9.1427802 H 65.109571 V 98.014219 Z" /><path id="num_2" d="m 12.258724,99.324625 c 0.09017,-8.3101 1.35894,-15.512 3.806324,-21.6058 2.447362,-6.0938 5.702776,-11.4035 9.766253,-15.9291 4.063435,-4.5255 8.772902,-8.427 14.128414,-11.7043 5.355442,-3.27718 10.987781,-6.20924 16.897033,-8.79615 4.156396,-1.84569 7.019413,-3.71539 8.589061,-5.6091 1.569527,-1.89359 2.354321,-3.90136 2.354384,-6.02333 -6.3e-5,-2.4938 -1.200502,-4.7566 -3.601319,-6.7884 -2.400936,-2.03166 -6.510888,-3.04752 -12.329868,-3.0476 -5.816256,8e-5 -11.009702,1.13148 -15.580354,3.3942 -4.570715,2.26288 -8.563723,5.01036 -11.979035,8.24246 L 11.840261,16.912735 c 5.170896,-5.26381 11.080801,-9.2575203 17.729733,-11.9811503 6.648883,-2.72343 13.852218,-4.08519995 21.610027,-4.08528995 11.542198,9e-5 20.429247,2.30867995 26.661173,6.92576995 6.231781,4.6172703 9.347708,11.5881303 9.34779,20.9125903 -8.2e-5,3.88036 -0.530558,7.27456 -1.591428,10.1826 -1.061032,2.90817 -2.630619,5.51616 -4.708767,7.82399 -2.0783,2.30798 -4.663751,4.40868 -7.756362,6.30228 -3.092747,1.8937 -6.71731,3.8099 -10.8737,5.7486 -4.339671,1.9388 -8.010026,3.8317 -11.011075,5.6789 -3.001143,1.8471 -5.517555,3.6478 -7.549244,5.4019 -2.031767,1.7542 -3.601354,3.5316 -4.708767,5.3323 -1.107481,1.8007 -1.892274,3.6239 -2.354383,5.4696 h 51.525913 v 18.6998 z" /><path id="num_3" d="m 89.288039,68.259914 c -8.2e-5,5.222007 -0.961736,9.779346 -2.884963,13.672116 -1.923385,3.892771 -4.62524,7.144583 -8.105571,9.755636 -3.480474,2.610954 -7.670935,4.580355 -12.571394,5.908301 -4.900577,1.327848 -10.328048,1.991725 -16.282428,1.991725 -7.237602,0 -14.039762,-1.465546 -20.406501,-4.396631 C 22.6704,92.259975 16.785166,87.589444 11.381461,81.179269 L 25.944653,69.358501 c 4.031098,4.21568 8.016088,7.170475 11.954984,8.864584 3.938835,1.694109 8.382288,2.541114 13.330374,2.541114 6.32059,0 10.991877,-1.076266 14.013875,-3.228797 3.021882,-2.152532 4.532852,-5.152167 4.532915,-8.998808 -6.3e-5,-3.757059 -1.213312,-6.528823 -3.639751,-8.315192 -2.426556,-1.786269 -5.93072,-2.679404 -10.512503,-2.679504 H 44.223073 V 38.718369 h 10.302841 c 4.031069,5.9e-5 6.916728,-0.82392 8.656985,-2.471929 1.740144,-1.64789 2.610245,-4.075088 2.610304,-7.281594 -5.9e-5,-1.190817 -0.274716,-2.381703 -0.823976,-3.572659 -0.549374,-1.190817 -1.442537,-2.244722 -2.679493,-3.161725 -1.237065,-0.916845 -2.885714,-1.649963 -4.945949,-2.199366 -2.060338,-0.549234 -4.602848,-0.82389 -7.627541,-0.82397 -7.234806,8e-5 -13.509315,2.701934 -18.823545,8.105574 L 16.878825,14.535832 C 21.457851,9.7723756 26.335306,6.222782 31.511206,3.8870502 36.687057,1.551497 42.847649,0.38367581 49.993,0.38357661 c 4.945203,9.92e-5 9.548001,0.57247729 13.808405,1.71714429 4.260291,1.1448555 7.993686,2.8396293 11.200197,5.0843313 3.206375,2.2448806 5.725125,5.0844108 7.556254,8.5186008 1.830981,3.434358 2.746508,7.396294 2.746586,11.885797 -7.8e-5,5.222076 -1.144837,9.436298 -3.43428,12.642685 -2.289593,3.206496 -4.854467,5.542138 -7.694632,7.006937 1.557029,0.547984 3.205677,1.371974 4.94595,2.471949 1.740129,1.100075 3.366414,2.497068 4.878858,4.191177 1.512291,1.694109 2.771666,3.73196 3.778127,6.113753 1.006301,2.381792 1.509492,5.129746 1.509574,8.243963 z" /><path id="num_4" d="M 79.501007,79.0332 V 98.8405 H 60.805428 V 79.0332 H 7.757831 V 61.5803 L 59.140029,1.88382 H 79.501007 V 61.0266 H 92.245111 V 79.0332 Z M 61.219664,24.04546 c -0.924339,1.2935 -2.194521,2.97933 -3.81055,5.05748 -1.616137,2.0783 -3.208972,4.04028 -4.778511,5.88596 L 38.783278,51.1948 c -0.741151,0.9215 -1.549897,1.8677 -2.426241,2.8384 -0.876409,0.9708 -1.730242,1.8944 -2.561501,2.7707 -0.83132,0.8765 -1.59357,1.707 -2.286753,2.4918 -0.693239,0.7848 -1.316001,1.4548 -1.86829,2.0099 0.831264,0 2.031702,-0.023 3.601319,-0.07 1.569558,-0.046 3.300472,-0.07 5.192747,-0.07 1.892206,0 3.761903,-0.023 5.609096,-0.07 1.847114,-0.046 3.463901,-0.07 4.850368,-0.07 H 60.805428 V 45.23813 c -5.7e-5,-1.38637 0.02249,-3.09544 0.06763,-5.12723 0.04503,-2.03167 0.09082,-4.08594 0.137375,-6.16282 0.04644,-2.07675 0.09293,-4.01548 0.139487,-5.81621 0.04644,-1.80059 0.06969,-3.16306 0.06974,-4.08741 z" /><path id="num_5" d="m 89.129799,64.034388 c -8.5e-5,5.8163 -0.992701,10.9174 -2.977851,15.3035 -1.985314,4.3861 -4.756045,8.0797 -8.312199,11.0808 -3.556303,3.0011 -7.827581,5.24 -12.813848,6.7166 -4.986389,1.4766 -10.434154,2.2149 -16.34331,2.2149 -7.016692,0 -13.549359,-0.7616 -19.598022,-2.2847 -6.048713,-1.5231 -12.11924,-4.2233 -18.2116,-8.1008 l 9.417534,-16.4849 c 4.522762,2.5869 9.139237,4.596 13.849438,6.0275 4.710141,1.4316 9.557686,2.1473 14.54265,2.1473 6.650272,0 11.775383,-1.3392 15.37535,-4.0177 3.599846,-2.6784 5.399799,-6.6496 5.399865,-11.9135 -6.6e-5,-2.491 -0.438254,-4.6601 -1.314566,-6.5073 -0.876441,-1.8471 -2.053631,-3.3477 -3.531575,-4.5017 -1.478066,-1.1539 -3.209684,-2.0077 -5.194861,-2.5615 -1.985287,-0.5536 -4.131846,-0.8305 -6.439682,-0.8305 -4.432654,0 -8.149504,0.577 -11.150563,1.7309 -3.001134,1.154 -5.655624,2.5157 -7.96348,4.0853 L 15.442248,49.350188 18.764592,0.87184421 H 83.309358 V 19.571644 H 36.631699 l -1.107448,16.759664 c 2.679821,-1.47653 5.589334,-2.58468 8.728549,-3.32446 3.139134,-0.73964 7.016607,-1.10949 11.632429,-1.10956 5.449826,7e-5 10.252285,0.80811 14.407389,2.42413 4.154973,1.61615 7.617505,3.87894 10.387608,6.7884 2.769949,2.90957 4.870716,6.32631 6.302308,10.25027 1.431426,3.924 2.14718,8.1488 2.147265,12.6743 z" /><path id="num_6" d="m 88.680928,66.320325 c -8.5e-5,5.361307 -1.045019,10.064545 -3.134806,14.109713 -2.089949,4.045267 -4.930062,7.453921 -8.520347,10.226061 -3.59043,2.772238 -7.839506,4.862096 -12.747238,6.269671 -4.907854,1.40758 -10.178287,2.11131 -15.811318,2.11131 -5.364086,0 -10.340524,-0.7495 -14.92933,-2.248613 C 28.949025,95.289356 24.950263,92.949204 21.54159,89.767912 18.132882,86.586619 15.451555,82.587908 13.497599,77.771579 11.543626,72.95535 10.566644,67.184299 10.56665,60.458428 c -6e-6,-4.179716 0.431973,-8.564647 1.295942,-13.154962 0.863952,-4.590167 2.317984,-9.088858 4.362101,-13.496093 2.044093,-4.407106 4.679657,-8.633298 7.906699,-12.678594 3.227003,-4.045139 7.225766,-7.589738 11.9963,-10.633787 C 40.898162,7.4511014 46.464673,5.0429767 52.82724,3.270579 59.189709,1.4983781 66.506328,0.6122284 74.777118,0.61213 v 18.538415 c -11.088714,7.8e-5 -20.108985,1.886088 -27.060839,5.658048 -6.95194,3.772089 -11.791088,9.338602 -14.517456,16.699541 3.089703,-2.088421 6.270268,-3.609716 9.541707,-4.563878 3.271361,-0.954033 7.360264,-1.431089 12.266721,-1.431148 4.726074,5.9e-5 9.134629,0.61302 13.225675,1.838864 4.090919,1.225972 7.658395,3.111282 10.702438,5.655962 3.043894,2.544788 5.429145,5.748944 7.155761,9.61242 1.726452,3.863575 2.589718,8.430297 2.589803,13.699971 z m -19.357997,0.682282 c -6.5e-5,-4.909143 -1.681527,-8.49949 -5.044394,-10.77104 -3.362987,-2.27155 -8.042656,-3.407276 -14.03902,-3.407375 -6.545619,9.9e-5 -11.499869,1.135825 -14.862764,3.407375 -3.362957,2.27155 -5.044421,5.907664 -5.044395,10.908342 -2.6e-5,4.451566 1.590603,7.927542 4.771893,10.427832 3.181229,2.500389 7.907354,3.750583 14.178391,3.750583 6.362474,0 11.293148,-1.27234 14.792039,-3.817118 3.49877,-2.54468 5.248185,-6.044278 5.24825,-10.498599 z          /&gt;" /><path id="num_7" d="m 86.710584,20.110778 c -9.879746,9.60359 -17.705139,20.86897 -23.476203,33.79618 -5.77118,12.9273 -8.656741,27.7475 -8.656692,44.4607 H 34.770434 c -2.9e-5,-15.7889 2.493135,-30.2393 7.479501,-43.3511 4.986291,-13.11182 12.003643,-24.83864 21.052076,-35.18052 H 13.99522 V 1.4109778 h 72.715364 z" /><path id="num_8" d="m 90.835603,68.429447 c -8.6e-5,4.8947 -0.946206,9.2816 -2.838363,13.1604 -1.892324,3.8789 -4.593311,7.1801 -8.102968,9.9036 -3.509808,2.7236 -7.757838,4.8236 -12.744104,6.3002 -4.986391,1.4766 -10.61873,2.214903 -16.897033,2.214903 -6.278395,0 -11.910734,-0.692503 -16.897034,-2.077503 -4.986357,-1.385 -9.233683,-3.3928 -12.74199,-6.0233 -3.50834,-2.6305 -6.209326,-5.8388 -8.102968,-9.6247 -1.893657,-3.7858 -2.8404819,-8.0797 -2.8404769,-12.8814 -5e-6,-3.3252 0.4621359,-6.2805 1.3864239,-8.866 0.924274,-2.5854 2.101465,-4.8242 3.531575,-6.7165 1.430089,-1.8922 3.068716,-3.485 4.915885,-4.7785 1.847138,-1.2934 3.693587,-2.35576 5.539352,-3.18711 -3.508344,-1.84569 -6.255122,-4.24586 -8.240342,-7.20052 -1.985244,-2.95454 -2.97786,-6.2325 -2.977851,-9.83388 -9e-6,-4.80169 0.946815,-9.00322 2.840477,-12.60462 1.893637,-3.60123 4.479089,-6.6023304 7.756362,-9.0033004 3.277233,-2.40078 7.132162,-4.20144 11.564799,-5.40198 4.432573,-1.20033999 9.187831,-1.80055999 14.265788,-1.80065999 4.801708,10e-5 9.395639,0.57707 13.781808,1.73091999 4.386049,1.15404 8.264226,2.88566 11.634543,5.19486 3.370173,2.30939 6.047912,5.2181904 8.033223,8.7264404 1.985153,3.5084 2.977769,7.61694 2.977852,12.32564 -8.3e-5,3.50839 -0.923659,6.83214 -2.770734,9.97125 -1.847233,3.13924 -4.66305,5.77119 -8.44746,7.89585 1.845674,0.83135 3.692123,1.91621 5.539353,3.25471 1.847077,1.3386 3.486408,2.9082 4.917999,4.7088 1.431427,1.8007 2.608617,3.9247 3.531575,6.372 0.922787,2.4474 1.384223,5.1942 1.384309,8.2404 z M 67.291769,28.400667 c -6.2e-5,-1.56951 -0.300172,-3.04682 -0.900329,-4.4319 -0.600281,-1.38494 -1.547106,-2.60792 -2.840477,-3.66895 -1.293489,-1.06087 -3.048356,-1.91471 -5.264604,-2.5615 -2.216357,-0.64664 -4.894095,-0.97 -8.033224,-0.97008 -6.002238,8e-5 -10.341851,1.13148 -13.018853,3.3942 -2.677067,2.26288 -4.015584,4.96387 -4.015555,8.10297 -2.9e-5,3.13925 1.430776,5.77049 4.292417,7.89374 2.861576,2.12337 7.108902,3.18503 12.741991,3.18497 6.002146,6e-5 10.342464,-1.01581 13.020966,-3.0476 2.678384,-2.03166 4.017606,-4.66361 4.017668,-7.89585 z m 4.155043,40.72198 c -6.7e-5,-4.4326 -1.685189,-7.8493 -5.055372,-10.2503 -3.370307,-2.4008 -8.749737,-3.6012 -16.138305,-3.6013 -7.29285,10e-5 -12.647623,1.247 -16.064334,3.7408 -3.416771,2.4939 -5.125141,5.8177 -5.125117,9.9713 -2.4e-5,4.4326 1.985208,7.8726 5.955703,10.32 3.970433,2.4474 9.048344,3.671 15.233748,3.671 6.65027,0 11.845125,-1.2004 15.584581,-3.6013 3.739332,-2.4008 5.609029,-5.8176 5.609096,-10.2502 z" /><path id="num_9" d="m 90.680972,39.30818 c -8.5e-5,4.2495 -0.438978,8.70532 -1.316679,13.36762 -0.87787,4.6623 -2.35517,9.2329 -4.431905,13.712 -2.076895,4.4791 -4.754633,8.773 -8.033224,12.8815 -3.278734,4.1086 -7.341485,7.7092 -12.188267,10.8018 -4.8469,3.0927 -10.502486,5.5394 -16.966777,7.34 -6.464375,1.8007 -13.898076,2.701 -22.301125,2.701 v -18.835 c 11.266066,0 20.431386,-1.9162 27.495985,-5.7486 7.064505,-3.8324 11.981794,-9.488 14.751882,-16.9668 -3.142055,2.1248 -6.374926,3.6718 -9.698623,4.6411 -3.323801,0.9694 -7.478136,1.4541 -12.463015,1.4541 -4.801794,0 -9.28019,-0.6234 -13.435202,-1.8704 -4.155065,-1.2469 -7.779629,-3.1631 -10.873701,-5.7486 -3.094103,-2.5854 -5.518228,-5.8401 -7.272381,-9.76413 -1.754171,-3.92391 -2.631252,-8.56434 -2.631246,-13.92129 -6e-6,-5.35401 1.06165,-10.10856 3.18497,-14.26368 2.123301,-4.15496 5.008862,-7.64074 8.656691,-10.45735 C 26.806149,5.81502 31.123218,3.691 36.109577,2.2594 41.095875,0.82799 46.452056,0.11223 52.178138,0.11213 c 5.354022,1e-4 10.385437,0.76165 15.094261,2.28464 4.7087,1.52319 8.794699,3.90082 12.25801,7.1329 3.463163,3.23225 6.187397,7.31825 8.172712,12.25801 1.98515,4.93991 2.977766,10.78007 2.977851,17.5205 z M 70.598969,32.524 c -6.5e-5,-4.52553 -1.616148,-8.0578 -4.848254,-10.59683 -3.232227,-2.53888 -8.033981,-3.80836 -14.405276,-3.80844 -6.464379,8e-5 -11.473955,1.2928 -15.028744,3.87818 -3.55485,2.58553 -5.33226,6.13964 -5.332234,10.66236 -2.6e-5,4.9878 1.708345,8.63561 5.125116,10.94344 3.41671,2.30794 8.172673,3.46188 14.267902,3.46183 6.647453,5e-5 11.679573,-1.15389 15.096374,-3.46183 3.416681,-2.30783 5.125051,-6.00073 5.125116,-11.07871 z" /></defs><rect x="0" y="0" width="20" height="20" stroke="none" fill="#538cc6" /><rect x="20" y="0" width="20" height="20" stroke="none" fill="#8cb3d9" /><rect x="40" y="0" width="20" height="20" stroke="none" fill="#538cc6" /><rect x="60" y="0" width="20" height="20" stroke="none" fill="#79a6d2" /><rect x="80" y="0" width="20" height="20" stroke="none" fill="#6699cc" /><rect x="100" y="0" width="20" height="20" stroke="none" fill="#79a6d2" /><rect x="120" y="0" width="20" height="20" stroke="none" fill="#538cc6" /><rect x="140" y="0" width="20" height="20" stroke="none" fill="#8cb3d9" /><rect x="160" y="0" width="20" height="20" stroke="none" fill="#538cc6" /><rect x="0" y="20" width="20" height="20" stroke="none" fill="#8cb3d9" /><rect x="20" y="20" width="20" height="20" stroke="none" fill="#538cc6" /><rect x="40" y="20" width="20" height="20" stroke="none" fill="#8cb3d9" /><rect x="60" y="20" width="20" height="20" stroke="none" fill="#6699cc" /><rect x="80" y="20" width="20" height="20" stroke="none" fill="#79a6d2" /><rect x="100" y="20" width="20" height="20" stroke="none" fill="#6699cc" /><rect x="120" y="20" width="20" height="20" stroke="none" fill="#8cb3d9" /><rect x="140" y="20" width="20" height="20" stroke="none" fill="#538cc6" /><rect x="160" y="20" width="20" height="20" stroke="none" fill="#8cb3d9" /><rect x="0" y="40" width="20" height="20" stroke="none" fill="#538cc6" /><rect x="20" y="40" width="20" height="20" stroke="none" fill="#8cb3d9" /><rect x="40" y="40" width="20" height="20" stroke="none" fill="#538cc6" /><rect x="60" y="40" width="20" height="20" stroke="none" fill="#79a6d2" /><rect x="80" y="40" width="20" height="20" stroke="none" fill="#6699cc" /><rect x="100" y="40" width="20" height="20" stroke="none" fill="#79a6d2" /><rect x="120" y="40" width="20" height="20" stroke="none" fill="#538cc6" /><rect x="140" y="40" width="20" height="20" stroke="none" fill="#8cb3d9" /><rect x="160" y="40" width="20" height="20" stroke="none" fill="#538cc6" /><rect x="0" y="60" width="20" height="20" stroke="none" fill="#79a6d2" /><rect x="20" y="60" width="20" height="20" stroke="none" fill="#6699cc" /><rect x="40" y="60" width="20" height="20" stroke="none" fill="#79a6d2" /><rect x="60" y="60" width="20" height="20" stroke="none" fill="#538cc6" /><rect x="80" y="60" width="20" height="20" stroke="none" fill="#8cb3d9" /><rect x="100" y="60" width="20" height="20" stroke="none" fill="#538cc6" /><rect x="120" y="60" width="20" height="20" stroke="none" fill="#79a6d2" /><rect x="140" y="60" width="20" height="20" stroke="none" fill="#6699cc" /><rect x="160" y="60" width="20" height="20" stroke="none" fill="#79a6d2" /><rect x="0" y="80" width="20" height="20" stroke="none" fill="#6699cc" /><rect x="20" y="80" width="20" height="20" stroke="none" fill="#79a6d2" /><rect x="40" y="80" width="20" height="20" stroke="none" fill="#6699cc" /><rect x="60" y="80" width="20" height="20" stroke="none" fill="#8cb3d9" /><rect x="80" y="80" width="20" height="20" stroke="none" fill="#538cc6" /><rect x="100" y="80" width="20" height="20" stroke="none" fill="#8cb3d9" /><rect x="120" y="80" width="20" height="20" stroke="none" fill="#6699cc" /><rect x="140" y="80" width="20" height="20" stroke="none" fill="#79a6d2" /><rect x="160" y="80" width="20" height="20" stroke="none" fill="#6699cc" /><rect x="0" y="100" width="20" height="20" stroke="none" fill="#79a6d2" /><rect x="20" y="100" width="20" height="20" stroke="none" fill="#6699cc" /><rect x="40" y="100" width="20" height="20" stroke="none" fill="#79a6d2" /><rect x="60" y="100" width="20" height="20" stroke="none" fill="#538cc6" /><rect x="80" y="100" width="20" height="20" stroke="none" fill="#8cb3d9" /><rect x="100" y="100" width="20" height="20" stroke="none" fill="#538cc6" /><rect x="120" y="100" width="20" height="20" stroke="none" fill="#79a6d2" /><rect x="140" y="100" width="20" height="20" stroke="none" fill="#6699cc" /><rect x="160" y="100" width="20" height="20" stroke="none" fill="#79a6d2" /><rect x="0" y="120" width="20" height="20" stroke="none" fill="#538cc6" /><rect x="20" y="120" width="20" height="20" stroke="none" fill="#8cb3d9" /><rect x="40" y="120" width="20" height="20" stroke="none" fill="#538cc6" /><rect x="60" y="120" width="20" height="20" stroke="none" fill="#79a6d2" /><rect x="80" y="120" width="20" height="20" stroke="none" fill="#6699cc" /><rect x="100" y="120" width="20" height="20" stroke="none" fill="#79a6d2" /><rect x="120" y="120" width="20" height="20" stroke="none" fill="#538cc6" /><rect x="140" y="120" width="20" height="20" stroke="none" fill="#8cb3d9" /><rect x="160" y="120" width="20" height="20" stroke="none" fill="#538cc6" /><rect x="0" y="140" width="20" height="20" stroke="none" fill="#8cb3d9" /><rect x="20" y="140" width="20" height="20" stroke="none" fill="#538cc6" /><rect x="40" y="140" width="20" height="20" stroke="none" fill="#8cb3d9" /><rect x="60" y="140" width="20" height="20" stroke="none" fill="#6699cc" /><rect x="80" y="140" width="20" height="20" stroke="none" fill="#79a6d2" /><rect x="100" y="140" width="20" height="20" stroke="none" fill="#6699cc" /><rect x="120" y="140" width="20" height="20" stroke="none" fill="#8cb3d9" /><rect x="140" y="140" width="20" height="20" stroke="none" fill="#538cc6" /><rect x="160" y="140" width="20" height="20" stroke="none" fill="#8cb3d9" /><rect x="0" y="160" width="20" height="20" stroke="none" fill="#538cc6" /><rect x="20" y="160" width="20" height="20" stroke="none" fill="#8cb3d9" /><rect x="40" y="160" width="20" height="20" stroke="none" fill="#538cc6" /><rect x="60" y="160" width="20" height="20" stroke="none" fill="#79a6d2" /><rect x="80" y="160" width="20" height="20" stroke="none" fill="#6699cc" /><rect x="100" y="160" width="20" height="20" stroke="none" fill="#79a6d2" /><rect x="120" y="160" width="20" height="20" stroke="none" fill="#538cc6" /><rect x="140" y="160" width="20" height="20" stroke="none" fill="#8cb3d9" /><rect x="160" y="160" width="20" height="20" stroke="none" fill="#538cc6" /><line x1="0" y1="0" x2="0" y2="180" stroke="white" stroke-width="1.2" stroke-linecap="butt" /><line x1="60" y1="0" x2="60" y2="180" stroke="white" stroke-width="1.2" stroke-linecap="butt" /><line x1="120" y1="0" x2="120" y2="180" stroke="white" stroke-width="1.2" stroke-linecap="butt" /><line x1="180" y1="0" x2="180" y2="180" stroke="white" stroke-width="1.2" stroke-linecap="butt" /><line x1="0" y1="0" x2="180" y2="0" stroke="white" stroke-width="1.2" stroke-linecap="butt" /><line x1="0" y1="60" x2="180" y2="60" stroke="white" stroke-width="1.2" stroke-linecap="butt" /><line x1="0" y1="120" x2="180" y2="120" stroke="white" stroke-width="1.2" stroke-linecap="butt" /><line x1="0" y1="180" x2="180" y2="180" stroke="white" stroke-width="1.2" stroke-linecap="butt" /><use href="#num_5" xlink:href="#num_5" transform="translate(1.5,101.5) scale(0.16666666666666666)" stroke="black" fill="black" /><use href="#num_7" xlink:href="#num_7" transform="translate(1.5,161.5) scale(0.16666666666666666)" stroke="black" fill="black" /><use href="#num_3" xlink:href="#num_3" transform="translate(21.5,1.5) scale(0.16666666666666666)" stroke="black" fill="black" /><use href="#num_6" xlink:href="#num_6" transform="translate(21.5,101.5) scale(0.16666666666666666)" stroke="black" fill="black" /><use href="#num_2" xlink:href="#num_2" transform="translate(21.5,141.5) scale(0.16666666666666666)" stroke="black" fill="black" /><use href="#num_9" xlink:href="#num_9" transform="translate(41.5,1.5) scale(0.16666666666666666)" stroke="black" fill="black" /><use href="#num_5" xlink:href="#num_5" transform="translate(41.5,121.5) scale(0.16666666666666666)" stroke="black" fill="black" /><use href="#num_1" xlink:href="#num_1" transform="translate(41.5,141.5) scale(0.16666666666666666)" stroke="black" fill="black" /><use href="#num_7" xlink:href="#num_7" transform="translate(61.5,21.5) scale(0.16666666666666666)" stroke="black" fill="black" /><use href="#num_6" xlink:href="#num_6" transform="translate(61.5,61.5) scale(0.16666666666666666)" stroke="black" fill="black" /><use href="#num_2" xlink:href="#num_2" transform="translate(61.5,121.5) scale(0.16666666666666666)" stroke="black" fill="black" /><use href="#num_6" xlink:href="#num_6" transform="translate(81.5,41.5) scale(0.16666666666666666)" stroke="black" fill="black" /><use href="#num_4" xlink:href="#num_4" transform="translate(81.5,81.5) scale(0.16666666666666666)" stroke="black" fill="black" /><use href="#num_5" xlink:href="#num_5" transform="translate(101.5,41.5) scale(0.16666666666666666)" stroke="black" fill="black" /><use href="#num_3" xlink:href="#num_3" transform="translate(101.5,61.5) scale(0.16666666666666666)" stroke="black" fill="black" /><use href="#num_9" xlink:href="#num_9" transform="translate(101.5,121.5) scale(0.16666666666666666)" stroke="black" fill="black" /><use href="#num_4" xlink:href="#num_4" transform="translate(121.5,21.5) scale(0.16666666666666666)" stroke="black" fill="black" /><use href="#num_2" xlink:href="#num_2" transform="translate(121.5,61.5) scale(0.16666666666666666)" stroke="black" fill="black" /><use href="#num_8" xlink:href="#num_8" transform="translate(121.5,81.5) scale(0.16666666666666666)" stroke="black" fill="black" /><use href="#num_5" xlink:href="#num_5" transform="translate(121.5,161.5) scale(0.16666666666666666)" stroke="black" fill="black" /><use href="#num_9" xlink:href="#num_9" transform="translate(141.5,21.5) scale(0.16666666666666666)" stroke="black" fill="black" /><use href="#num_8" xlink:href="#num_8" transform="translate(141.5,41.5) scale(0.16666666666666666)" stroke="black" fill="black" /><use href="#num_7" xlink:href="#num_7" transform="translate(141.5,61.5) scale(0.16666666666666666)" stroke="black" fill="black" /><use href="#num_4" xlink:href="#num_4" transform="translate(141.5,141.5) scale(0.16666666666666666)" stroke="black" fill="black" /><use href="#num_7" xlink:href="#num_7" transform="translate(161.5,1.5) scale(0.16666666666666666)" stroke="black" fill="black" /><use href="#num_2" xlink:href="#num_2" transform="translate(161.5,21.5) scale(0.16666666666666666)" stroke="black" fill="black" /><use href="#num_3" xlink:href="#num_3" transform="translate(161.5,41.5) scale(0.16666666666666666)" stroke="black" fill="black" /><use href="#num_1" xlink:href="#num_1" transform="translate(161.5,121.5) scale(0.16666666666666666)" stroke="black" fill="black" /><use href="#num_1" xlink:href="#num_1" transform="translate(1.5,1.5) scale(0.16666666666666666)" stroke="#99ff33" fill="#99ff33" /><use href="#num_2" xlink:href="#num_2" transform="translate(61.5,1.5) scale(0.16666666666666666)" stroke="#99ff33" fill="#99ff33" /></svg>