<svg xmlns="http://www.w3.org/2000/svg" xmlns:xlink="http://www.w3.org/1999/xlink" version="1.2" baseProfile="tiny" viewBox="0 0 180 180"><defs /><rect x="0" y="0" width="20" height="20" stroke="none" fill="#6699cc" /><rect x="20" y="0" width="20" height="20" stroke="none" fill="#79a6d2" /><rect x="40" y="0" width="20" height="20" stroke="none" fill="#6699cc" /><rect x="60" y="0" width="20" height="20" stroke="none" fill="#79a6d2" /><rect x="80" y="0" width="20" height="20" stroke="none" fill="#6699cc" /><rect x="100" y="0" width="20" height="20" stroke="none" fill="#79a6d2" /><rect x="120" y="0" width="20" height="20" stroke="none" fill="#6699cc" /><rect x="140" y="0" width="20" height="20" stroke="none" fill="#79a6d2" /><rect x="160" y="0" width="20" height="20" stroke="none" fill="#6699cc" /><rect x="0" y="20" width="20" height="20" stroke="none" fill="#79a6d2" /><rect x="20" y="20" width="20" height="20" stroke="none" fill="#6699cc" /><rect x="40" y="20" width="20" height="20" stroke="none" fill="#79a6d2" /><rect x="60" y="20" width="20" height="20" stroke="none" fill="#6699cc" /><rect x="80" y="20" width="20" height="20" stroke="none" fill="#79a6d2" /><rect x="100" y="20" width="20" height="20" stroke="none" fill="#6699cc" /><rect x="120" y="20" width="20" height="20" stroke="none" fill="#79a6d2" /><rect x="140" y="20" width="20" height="20" stroke="none" fill="#6699cc" /><rect x="160" y="20" width="20" height="20" stroke="none" fill="#79a6d2" /><rect x="0" y="40" width="20" height="20" stroke="none" fill="#6699cc" /><rect x="20" y="40" width="20" height="20" stroke="none" fill="#79a6d2" /><rect x="40" y="40" width="20" height="20" stroke="none" fill="#6699cc" /><rect x="60" y="40" width="20" height="20" stroke="none" fill="#79a6d2" /><rect x="80" y="40" width="20" height="20" stroke="none" fill="#6699cc" /><rect x="100" y="40" width="20" height="20" stroke="none" fill="#79a6d2" /><rect x="120" y="40" width="20" height="20" stroke="none" fill="#6699cc" /><rect x="140" y="40" width="20" height="20" stroke="none" fill="#79a6d2" /><rect x="160" y="40" width="20" height="20" stroke="none" fill="#6699cc" /><rect x="0" y="60" width="20" height="20" stroke="none" fill="#79a6d2" /><rect x="20" y="60" width="20" height="20" stroke="none" fill="#6699cc" /><rect x="40" y="60" width="20" height="20" stroke="none" fill="#79a6d2" /><rect x="60" y="60" width="20" height="20" stroke="none" fill="#6699cc" /><rect x="80" y="60" width="20" height="20" stroke="none" fill="#79a6d2" /><rect x="100" y="60" width="20" height="20" stroke="none" fill="#6699cc" /><rect x="120" y="60" width="20" height="20" stroke="none" fill="#79a6d2" /><rect x="140" y="60" width="20" height="20" stroke="none" fill="#6699cc" /><rect x="160" y="60" width="20" height="20" stroke="none" fill="#79a6d2" /><rect x="0" y="80" width="20" height="20" stroke="none" fill="#6699cc" /><rect x="20" y="80" width="20" height="20" stroke="none" fill="#79a6d2" /><rect x="40" y="80" width="20" height="20" stroke="none" fill="#6699cc" /><rect x="60" y="80" width="20" height="20" stroke="none" fill="#79a6d2" /><rect x="80" y="80" width="20" height="20" stroke="none" fill="#6699cc" /><rect x="100" y="80" width="20" height="20" stroke="none" fill="#79a6d2" /><rect x="120" y="80" width="20" height="20" stroke="none" fill="#6699cc" /><rect x="140" y="80" width="20" height="20" stroke="none" fill="#79a6d2" /><rect x="160" y="80" width="20" height="20" stroke="none" fill="#6699cc" /><rect x="0" y="100" width="20" height="20" stroke="none" fill="#79a6d2" /><rect x="20" y="100" width="20" height="20" stroke="none" fill="#6699cc" /><rect x="40" y="100" width="20" height="20" stroke="none" fill="#79a6d2" /><rect x="60" y="100" width="20" height="20" stroke="none" fill="#6699cc" /><rect x="80" y="100" width="20" height="20" stroke="none" fill="#79a6d2" /><rect x="100" y="100" width="20" height="20" stroke="none" fill="#6699cc" /><rect x="120" y="100" width="20" height="20" stroke="none" fill="#79a6d2" /><rect x="140" y="100" width="20" height="20" stroke="none" fill="#6699cc" /><rect x="160" y="100" width="20" height="20" stroke="none" fill="#79a6d2" /><rect x="0" y="120" width="20" height="20" stroke="none" fill="#6699cc" /><rect x="20" y="120" width="20" height="20" stroke="none" fill="#79a6d2" /><rect x="40" y="120" width="20" height="20" stroke="none" fill="#6699cc" /><rect x="60" y="120" width="20" height="20" stroke="none" fill="#79a6d2" /><rect x="80" y="120" width="20" height="20" stroke="none" fill="#6699cc" /><rect x="100" y="120" width="20" height="20" stroke="none" fill="#79a6d2" /><rect x="120" y="120" width="20" height="20" stroke="none" fill="#6699cc" /><rect x="140" y="120" width="20" height="20" stroke="none" fill="#79a6d2" /><rect x="160" y="120" width="20" height="20" stroke="none" fill="#6699cc" /><rect x="0" y="140" width="20" height="20" stroke="none" fill="#79a6d2" /><rect x="20" y="140" width="20" height="20" stroke="none" fill="#6699cc" /><rect x="40" y="140" width="20" height="20" stroke="none" fill="#79a6d2" /><rect x="60" y="140" width="20" height="20" stroke="none" fill="#6699cc" /><rect x="80" y="140" width="20" height="20" stroke="none" fill="#79a6d2" /><rect x="100" y="140" width="20" height="20" stroke="none" fill="#6699cc" /><rect x="120" y="140" width="20" height="20" stroke="none" fill="#79a6d2" /><rect x="140" y="140" width="20" height="20" stroke="none" fill="#6699cc" /><rect x="160" y="140" width="20" height="20" stroke="none" fill="#79a6d2" /><rect x="0" y="160" width="20" height="20" stroke="none" fill="#6699cc" /><rect x="20" y="160" width="20" height="20" stroke="none" fill="#79a6d2" /><rect x="40" y="160" width="20" height="20" stroke="none" fill="#6699cc" /><rect x="60" y="160" width="20" height="20" stroke="none" fill="#79a6d2" /><rect x="80" y="160" width="20" height="20" stroke="none" fill="#6699cc" /><rect x="100" y="160" width="20" height="20" stroke="none" fill="#79a6d2" /><rect x="120" y="160" width="20" height="20" stroke="none" fill="#6699cc" /><rect x="140" y="160" width="20" height="20" stroke="none" fill="#79a6d2" /><rect x="160" y="160" width="20" height="20" stroke="none" fill="#6699cc" /><line x1="0" y1="0" x2="0" y2="180" stroke="white" stroke-width="1" stroke-linecap="butt" /><line x1="60" y1="0" x2="60" y2="180" stroke="white" stroke-width="1" stroke-linecap="butt" /><line x1="120" y1="0" x2="120" y2="180" stroke="white" stroke-width="1" stroke-linecap="butt" /><line x1="180" y1="0" x2="180" y2="180" stroke="white" stroke-width="1" stroke-linecap="butt" /><line x1="0" y1="0" x2="180" y2="0" stroke="white" stroke-width="1" stroke-linecap="butt" /><line x1="0" y1="60" x2="180" y2="60" stroke="white" stroke-width="1" stroke-linecap="butt" /><line x1="0" y1="120" x2="180" y2="120" stroke="white" stroke-width="1" stroke-linecap="butt" /><line x1="0" y1="180" x2="180" y2="180" stroke="white" stroke-width="1" stroke-linecap="butt" /><text x="6" y="15" stroke="black" fill="black">1</text><text x="26" y="15" stroke="black" fill="black">2</text><text x="46" y="15" stroke="black" fill="black">3</text><text x="66" y="15" stroke="black" fill="black">4</text><text x="86" y="15" stroke="black" fill="black">5</text><text x="106" y="15" stroke="black" fill="black">6</text><text x="126" y="15" stroke="black" fill="black">7</text><text x="146" y="15" stroke="black" fill="black">8</text><text x="166" y="15" stroke="black" fill="black">9</text></svg>